<?xml version="1.0" encoding="utf-8"?>
<!DOCTYPE svg PUBLIC "-//W3C//DTD SVG 1.0//EN" "http://www.w3.org/TR/2001/REC-SVG-20010904/DTD/svg10.dtd">
<svg version="1.0" xmlns="http://www.w3.org/2000/svg" width="633px" height="630px" viewBox="0 0 633 630" preserveAspectRatio="xMidYMid meet">
 <g fill="#000000">
  <path d="M307.75 542.25 c-19.05 -3.45 -32.25 -15.30 -35.05 -31.30 -1.30 -7.65 -0.45 -11.55 3.15 -14.30 l1.80 -1.40 40.40 0 c40 0 40.40 0 41.75 1.05 3.10 2.30 3.45 3.25 3.45 9.60 0 6.75 -0.55 9.25 -3.35 14.70 -7.30 14.25 -22.90 22.50 -42.40 22.35 -3.45 0 -7.80 -0.35 -9.75 -0.70z m16.95 -19.25 c4.85 -1.25 9.30 -3.45 12.70 -6.35 1.45 -1.25 2.60 -2.30 2.50 -2.35 -0.10 0 -9.95 0.05 -21.90 0.20 l-21.75 0.25 1.75 1.65 c2.35 2.20 9.05 5.60 13 6.65 4.40 1.15 9.05 1.15 13.70 -0.05z"/>
  <path d="M257.25 484.80 c-0.80 -0.35 -2.10 -1.30 -2.80 -2.10 -3.70 -4.05 -3.10 -11.75 1.10 -14.75 l1.70 -1.20 24.25 -0.25 c13.35 -0.15 40.45 -0.25 60.25 -0.25 40.05 0 37.80 -0.20 40.35 3.35 0.90 1.35 1.20 2.45 1.30 5.65 0.15 3.75 0.10 4.15 -1.35 6.30 -0.85 1.30 -2.20 2.60 -2.95 2.85 -0.90 0.40 -20.70 0.65 -60.85 0.80 -49.55 0.25 -59.75 0.15 -61 -0.40z"/>
  <path d="M251 455.90 c-3.30 -2.25 -3.60 -3.15 -4.05 -11 -0.65 -11.30 -1.60 -17.90 -3.75 -26.65 -3.90 -15.65 -10.25 -28.05 -27.55 -54 -11.95 -17.90 -17.95 -29.70 -22.60 -44.55 -3.90 -12.55 -5.20 -21.90 -5.25 -37.70 0 -18.75 2.30 -31.40 8.75 -48.10 6.85 -17.80 15.05 -30.45 28.60 -44.35 6.25 -6.35 8.50 -8.30 15.85 -13.55 7.65 -5.55 12.55 -8.50 19.75 -12 8.20 -3.95 14.05 -6.05 23.55 -8.40 33.85 -8.50 69.90 -4 98 12.20 34 19.60 56.15 50.60 63.65 89.20 1.50 7.65 2.05 14.40 2.05 25 0 19.45 -2.65 33 -9.80 50 -4.65 11.10 -7.65 16.55 -17.40 31.45 -10.65 16.25 -14.95 23.35 -19.30 31.95 -7.55 15 -11 29 -11.95 48.35 -0.40 8.30 -0.90 9.85 -3.65 11.85 -1.45 1 -2.25 1.15 -6.25 1.15 -5.35 0 -6.65 -0.65 -8.55 -4.30 -1.15 -2.10 -1.20 -2.50 -0.90 -10.45 1.05 -30.40 8.40 -51.10 29.80 -83.75 13.15 -20.05 18.65 -30 22.75 -41.25 7.80 -21.30 8.10 -46.30 0.75 -68.65 -3.60 -10.90 -11 -24.80 -18.30 -34.50 -3.75 -4.90 -14.45 -15.55 -19.95 -19.80 -13.70 -10.65 -30.05 -18.05 -47.90 -21.75 -12.05 -2.50 -27.10 -2.40 -39.60 0.20 -29.85 6.20 -55.05 23.10 -71.75 48 -3.90 5.80 -10.25 18.20 -12.45 24.25 -2.15 5.90 -4.25 14.20 -5.40 21 -1.35 8.30 -1.25 25.30 0.25 33.75 3.20 18.05 9.30 31.25 26.50 57.25 9.40 14.20 11.90 18.35 16.45 27.45 10.05 20.05 13.85 34.95 14.95 58.40 0.35 7.80 0.10 9.45 -2 11.85 -1.60 1.80 -3.90 2.55 -7.95 2.55 -3 0 -4 -0.20 -5.35 -1.10z"/>
  <path d="M297.25 438.55 c-4.10 -1.85 -4.45 -2.85 -5.75 -15.45 -1.60 -15.80 -3.95 -40.25 -4.60 -48.05 -0.60 -6.70 -0.70 -7.25 -1.85 -8 -1.95 -1.35 -5.40 -5 -6.90 -7.30 -1.35 -2.15 -2.90 -3.25 -4.55 -3.25 -0.45 0 -2.75 -0.65 -5.05 -1.50 -9.35 -3.25 -16.40 -10.35 -19.80 -19.95 -1 -2.85 -1.40 -3.30 -4.20 -4.65 -5.40 -2.65 -11.20 -10.40 -13.15 -17.55 -1.50 -5.45 -1.45 -15.55 0.10 -19.50 l1.10 -2.95 -1.55 -3.30 c-0.80 -1.85 -1.75 -4.60 -2.10 -6.10 -0.70 -3.25 -0.30 -13.35 0.60 -16.25 1.50 -4.65 5.80 -10.85 9.30 -13.45 1.15 -0.85 2.20 -1.85 2.35 -2.20 0.15 -0.35 0.05 -2.30 -0.30 -4.30 -0.65 -4.35 -0.05 -10.45 1.60 -15.35 2.80 -8.30 10.45 -15.55 19.65 -18.70 2.10 -0.70 10.15 -1.75 13.05 -1.65 1.05 0 1.75 -0.35 2.50 -1.40 3.10 -4.25 4.35 -5.55 7.20 -7.50 3.75 -2.55 6.80 -3.55 13.20 -4.30 4.20 -0.50 5.50 -0.50 9.25 0.25 2.45 0.45 5.85 1.55 7.55 2.40 l3.20 1.55 3.05 -1.55 c4.95 -2.45 8.75 -3.20 14.85 -2.90 9.75 0.50 16.70 4.15 21.45 11.35 1.80 2.75 1.80 2.75 6.30 3.90 6.30 1.60 10.75 4.10 15.30 8.60 4.15 4.15 6 7 7.95 12.25 1.25 3.35 1.40 3.55 4 4.80 6.25 3 12.05 11.25 13.85 19.60 1.05 5 0.70 14.65 -0.70 18.15 l-1 2.55 1.20 2.05 c2 3.40 3.15 8.30 3.15 13.65 0 5.85 -0.55 9.05 -2.30 12.85 -1.20 2.70 -6.35 9.60 -7.10 9.60 -0.20 0 -1.05 0.65 -1.90 1.45 l-1.60 1.50 0.30 6.45 c0.35 9.30 -0.95 14.50 -5.25 20.50 -5.05 7.10 -13.80 11.85 -22.90 12.40 -7.40 0.40 -7.55 0.45 -9.35 3.10 -0.85 1.30 -2.90 3.60 -4.50 5.15 l-2.90 2.80 -2 20.70 c-4.30 44.85 -4.25 44.45 -5.70 46.55 -1.85 2.75 -3.40 3.55 -7.40 3.75 -4.80 0.30 -7.60 -1 -9.30 -4.35 -1.35 -2.60 -1.35 -3.20 0.35 -20.75 0.60 -5.75 1.30 -13.10 1.55 -16.25 0.30 -3.15 0.85 -8.55 1.25 -12 0.35 -3.45 0.85 -8.15 1 -10.50 l0.35 -4.25 -3.30 -0.65 c-1.85 -0.35 -4.55 -1.30 -6.10 -2.15 l-2.70 -1.55 -3.70 1.80 c-2.05 1 -4.65 2 -5.85 2.20 l-2.20 0.40 0.15 2.70 c0.10 1.50 1.15 13.10 2.40 25.75 2.85 28.90 3.05 32.45 2.05 34.75 -1.45 3.40 -4.40 5 -9.05 5 -1.40 0 -3.45 -0.45 -4.55 -0.95z m7.80 -88.70 c3 -4.15 3.55 -5.70 3.35 -9.60 -0.25 -5 -0.50 -5.25 -6.20 -5.25 -7.50 0 -12.75 -1.60 -15.80 -4.85 -3.60 -3.80 -3.20 -10.05 0.85 -13.60 l1.80 -1.55 6.35 0 c7.60 -0.05 10.05 -0.90 11.80 -4.25 1 -1.95 1.05 -2.95 1.35 -29.75 0.35 -29.55 -0.05 -47.75 -1.25 -55.50 -1.10 -6.95 -2.90 -11.50 -4.55 -11.50 -1.45 0 -5 3.85 -8.65 9.40 -2.85 4.40 -4.10 5.85 -5.40 6.40 -2 0.85 -9 0.95 -11.05 0.15 -4 -1.50 -6.70 -1.95 -8.35 -1.25 -0.85 0.35 -1.85 1 -2.25 1.45 -0.60 0.80 -0.35 0.85 3.40 0.85 4.55 0 7.40 1.05 8.80 3.20 0.45 0.65 1.70 1.80 2.85 2.55 2.40 1.60 2.80 1.50 7.05 -2.15 3.25 -2.75 5.45 -3.60 9.45 -3.60 3.35 0 6.70 1.60 8.25 3.95 0.95 1.35 1.15 2.40 1.15 5.30 0 3.05 -0.20 3.85 -1.45 5.85 -1.90 3 -5.70 5.95 -10.75 8.40 -5.05 2.45 -7.40 2.95 -12.95 3 -4 0 -4.85 -0.20 -8.65 -1.80 -7.75 -3.35 -11.65 -8.80 -11.70 -16.35 l-0.05 -3.60 -1.25 2.45 c-1.60 3 -1.40 4.15 1.30 8.35 1.90 2.95 2 3.30 2 6.90 0 2.70 -0.25 4.20 -0.80 5.05 -1.70 2.50 -5.55 6.20 -10.05 9.55 -3.10 2.30 -4.65 3.80 -4.65 4.45 0 1.25 3.05 9.60 4.75 13.05 1.90 3.70 4.65 7.30 6.65 8.55 2 1.25 4.10 1 8.30 -0.85 2.15 -0.95 3.65 -1.25 6.45 -1.25 l3.65 0 3.45 3.45 c4.15 4.20 4.70 5.15 4.75 8.15 0 3.35 -0.95 3.90 -6.85 3.90 -2.55 0 -8.15 -0.45 -12.50 -1.05 -12.85 -1.70 -17.65 -1.40 -17.65 1 0 1.20 2.55 4.70 6.40 8.75 l3.10 3.35 0.50 -1.30 c0.30 -0.75 0.50 -1.50 0.50 -1.70 0 -0.20 0.70 -1.35 1.50 -2.50 l1.55 -2.10 3.35 0.15 c3.10 0.15 3.40 0.25 4.40 1.75 0.60 0.90 2.10 4.75 3.35 8.50 2.65 8.20 5.05 13.35 6.75 14.65 0.70 0.60 2 1 3.05 1 3.15 0 5.95 2.25 11.20 9.10 5.05 6.55 6.40 6.90 9.40 2.75z m30.85 1.95 c2.40 -1.30 4.75 -4.20 7.05 -8.90 2 -4 2.60 -4.80 4.30 -5.65 2.95 -1.45 7.50 -1.30 12.65 0.45 l4.15 1.40 2.60 -1.10 c1.45 -0.55 3.20 -1.55 3.95 -2.15 l1.35 -1.10 -4.60 0 -4.65 0 -5.85 -3.65 -5.85 -3.70 -1.60 1 c-0.90 0.60 -2.70 2 -4 3.25 -2.80 2.60 -5 3.35 -9.85 3.35 -2.60 0 -4.15 -0.25 -5.60 -1 -2.55 -1.30 -2.60 -1.15 -2.40 6.15 0.20 5.30 0.30 5.85 1.70 8.10 0.85 1.30 2.30 2.80 3.25 3.30 2.05 1.15 1.75 1.10 3.40 0.25z m-3.15 -36 c5.65 -5.65 10.85 -7.80 19 -7.80 7.30 0 12.90 2.05 17.50 6.40 l2.50 2.35 -0.15 -5 c-0.20 -4.80 -0.15 -5.10 1.05 -6.55 0.95 -1.15 2.25 -1.80 5 -2.60 6.40 -1.85 9.80 -5.45 9.85 -10.35 0 -2.45 -2.20 -7.25 -4.70 -10.05 -3.80 -4.40 -10.80 -7.85 -15.55 -7.65 -1.35 0.05 -4.50 0.10 -6.95 0.15 l-4.50 0.05 -1.50 -2.15 c-1.30 -1.85 -1.55 -2.70 -1.70 -5.75 -0.15 -3.10 -0.05 -3.85 1 -5.35 2.45 -3.60 7.35 -5.80 15.65 -6.95 2.30 -0.35 4.30 -0.90 4.75 -1.35 0.65 -0.70 0.60 -0.90 -0.90 -2.15 -1.25 -1.10 -1.95 -2.40 -3.10 -6 -1.80 -5.45 -2.55 -7 -4.90 -10.15 -2.50 -3.30 -6.55 -5.40 -11.35 -5.85 l-3.75 -0.35 -4.75 -4.70 c-4.80 -4.80 -9.35 -8.25 -11.60 -8.80 -2.75 -0.70 -4.85 3.70 -6 12.45 -0.60 5.05 -0.70 9.65 -0.45 26.60 0.15 11.30 0.45 31.15 0.65 44.15 0.30 21.65 0.35 23.50 1.05 22.05 0.45 -0.85 2.15 -2.95 3.85 -4.65z"/>
  <path d="M289.10 298.70 c-1.90 -1 -3.75 -3.20 -6.40 -7.70 -3.15 -5.40 -4.45 -5.85 -9.50 -3.30 -3.15 1.65 -3.85 1.80 -7.60 1.80 -4.90 0 -6.45 -0.70 -8.05 -3.50 -0.80 -1.45 -1.05 -2.75 -1.05 -5.50 0 -6.05 1.75 -8.45 8.50 -11.70 3.85 -1.80 4.70 -2 9 -2.20 7.20 -0.30 11.40 0.90 17.90 5.05 3.20 2.05 7.65 6.75 9.35 9.85 1.35 2.50 1.50 3.20 1.50 7.35 0 5.10 -0.40 6 -3.95 8.85 -1.50 1.25 -2.35 1.55 -4.95 1.65 -2.20 0.15 -3.60 -0.05 -4.75 -0.65z"/>
  <path d="M345.75 301.80 c-4.40 -1.10 -7.15 -3 -10.30 -7.15 -5.75 -7.65 -6.55 -19.50 -1.55 -23.65 1.65 -1.35 2.20 -1.50 5.20 -1.50 3.95 0 4.80 0.55 9.65 6.60 3.30 4.05 5.35 6 6.95 6.60 0.55 0.15 2.10 -0.10 3.65 -0.70 3.05 -1.15 10 -1.40 13.40 -0.45 3.30 0.90 4.25 2.15 4.25 5.55 0 1.65 -0.35 3.60 -0.75 4.35 -2 3.90 -10.10 8.95 -16.60 10.30 -4.10 0.90 -10.45 0.90 -13.90 0.05z"/>
  <path d="M333.20 257 c-3.05 -1.25 -5.70 -5.70 -5.70 -9.65 0 -3.80 2.65 -7.70 6.90 -10.10 8.70 -4.95 25.15 -5.55 28.90 -1.10 1.20 1.45 1.30 1.85 1 4.50 -0.55 5.45 -5.25 9.50 -11.70 10.15 -2.95 0.35 -3.25 0.45 -5.10 2.70 -2.70 3.25 -4.50 4 -9.35 3.95 -2.15 0 -4.40 -0.20 -4.95 -0.45z"/>
  <path d="M511 403.80 c-0.95 -0.35 -3.45 -1.65 -5.50 -2.90 -3.90 -2.40 -12.15 -7.15 -16 -9.30 -12.70 -7.05 -27.10 -15.65 -28.80 -17.25 -2.25 -2.05 -2.95 -4.95 -2.25 -8.90 0.95 -5.45 4.20 -7.75 10.45 -7.35 2.75 0.15 3.85 0.50 6.10 1.90 1.50 1 4 2.40 5.50 3.20 1.50 0.80 8.40 4.75 15.25 8.70 6.90 4 15.20 8.85 18.50 10.75 7.95 4.60 8.60 5.10 9.80 7.45 0.85 1.65 1 2.75 0.85 5.40 -0.20 4 -1.80 6.85 -4.55 8.15 -2.10 1 -6.85 1.10 -9.35 0.15z"/>
  <path d="M138.10 389.50 c-2.70 -1.65 -3.60 -3.70 -3.60 -8.15 0 -5.75 0.85 -7 7.25 -10.70 21.85 -12.60 21.25 -12.30 25.05 -12.55 4.30 -0.25 6.55 0.65 8.60 3.30 1.25 1.60 1.35 2.15 1.35 6.15 0 3.65 -0.15 4.60 -1.05 5.80 -1.20 1.65 -5.30 4.25 -18.40 11.75 l-9.50 5.40 -4 0 c-3.15 0 -4.40 -0.20 -5.70 -1z"/>
  <path d="M113.85 290 c-5.50 -1.05 -8.45 -7.55 -6.05 -13.30 1.05 -2.50 2 -3.60 4.30 -4.75 1.70 -0.90 3.15 -0.95 18.30 -0.95 17.65 0 18.65 0.10 20.95 2.60 3.60 3.85 3.40 11.25 -0.40 14.75 -0.65 0.60 -2.20 1.30 -3.45 1.60 -2.55 0.60 -30.65 0.65 -33.65 0.05z"/>
  <path d="M487.30 289.75 c-4.25 -1.50 -6.10 -4.80 -5.65 -10.05 0.30 -3.75 1.80 -6.15 4.85 -7.70 1.85 -0.95 2.95 -1 18.30 -1 15.60 0 16.50 0.05 18.55 1.05 3.35 1.65 4.35 3.45 4.60 8.35 0.15 3.75 0.05 4.30 -1.10 6.05 -0.75 1.15 -2.15 2.30 -3.55 2.95 -2.20 1.05 -2.95 1.10 -18.15 1.10 -12.20 -0.05 -16.35 -0.20 -17.85 -0.75z"/>
  <path d="M152.95 197.35 c-5.90 -3.40 -14.20 -8.20 -18.45 -10.70 -4.25 -2.45 -10.45 -6 -13.75 -7.85 -6.65 -3.75 -8.55 -5.30 -9.55 -7.65 -1.10 -2.60 -0.90 -7.15 0.45 -9.70 1.70 -3.15 3.75 -4.20 8.35 -4.20 4.40 0 3.35 -0.50 26.50 13 8.10 4.75 17.55 10.20 21 12.15 8.60 4.85 9.50 5.95 9.50 11.70 0 6.50 -3.05 9.40 -9.85 9.40 l-3.50 0 -10.70 -6.15z"/>
  <path d="M462.75 202.70 c-0.80 -0.40 -2.05 -1.45 -2.75 -2.35 -1.05 -1.30 -1.30 -2.20 -1.40 -5.65 -0.15 -3.50 -0.05 -4.45 0.90 -6.05 1.25 -2.20 1.40 -2.35 16.80 -11.10 l11.55 -6.55 3.70 0 c6.75 0 9.45 2.70 9.45 9.55 0 6.25 0.25 6.05 -21.05 18.20 l-8.25 4.75 -3.75 0 c-2.35 0 -4.25 -0.30 -5.20 -0.80z"/>
  <path d="M225.60 139.20 c-1.20 -0.60 -2.40 -2.15 -4.45 -5.65 -1.55 -2.65 -4.55 -7.70 -6.65 -11.30 -2.10 -3.55 -4.45 -7.60 -5.30 -9 -1.30 -2.20 -1.45 -2.95 -1.45 -6.55 0 -3.65 0.15 -4.20 1.40 -5.85 2.20 -2.90 3.80 -3.45 8.90 -3.25 4.15 0.15 4.50 0.25 5.90 1.65 0.80 0.85 4.10 6.10 7.35 11.75 3.20 5.65 6.55 11.25 7.40 12.50 1.45 2.10 1.55 2.50 1.55 6.85 0 4.95 -0.50 6.15 -3.45 8.35 -1.90 1.45 -8.75 1.70 -11.20 0.50z"/>
  <path d="M399.10 139.15 c-2.85 -1.40 -3.85 -3.35 -4 -7.95 -0.20 -4.70 -0.60 -3.80 6.65 -16.20 2.80 -4.80 5.70 -9.75 6.35 -11 4.45 -8.05 14.80 -25.55 16.05 -27.15 1.85 -2.40 4.15 -3.35 8 -3.35 5.45 0 8.70 3 9.25 8.50 0.10 1.25 0 3.10 -0.30 4.15 -0.50 1.75 -9.70 18.25 -17.35 31.10 -1.95 3.30 -5.20 8.95 -7.25 12.50 -3.90 7 -5 8.45 -7.10 9.55 -1.90 1 -8.20 0.90 -10.30 -0.15z"/>
  <path d="M313.70 116.45 c-2.25 -0.65 -4.50 -2.95 -5.15 -5.25 -0.35 -1.20 -0.55 -7.90 -0.55 -17.95 0 -15.65 0.05 -16.10 1.15 -18.25 1.60 -3.20 4.05 -4.50 8.60 -4.50 4.20 0 6.90 1.30 8.45 4 1 1.65 1.05 2.65 1.20 18 0.20 17.70 0.05 18.90 -2.45 21.75 -2.25 2.55 -6.95 3.45 -11.25 2.20z"/>
 </g>
 <g fill="#ffffff">
  <path d="M0 315 l0 -315 316.50 0 316.50 0 0 315 0 315 -316.50 0 -316.50 0 0 -315z m326.25 225.75 c8.25 -1.50 13 -3.30 19.55 -7.55 4.95 -3.15 9.75 -8.55 12.60 -14.10 2.60 -5.15 3.35 -8 3.35 -13.20 0 -4.70 -0.55 -5.95 -3.45 -8.10 -1.35 -1.05 -1.90 -1.05 -37.95 -1.20 -20.15 -0.10 -37.80 0 -39.25 0.15 -2.15 0.25 -3 0.70 -4.55 2.15 -2.80 2.65 -3.30 4.95 -2.30 10.70 2 11.65 10.45 22.05 22.20 27.25 9.40 4.20 20.45 5.65 29.80 3.90z m51.35 -57.85 c0.75 -0.30 2.10 -1.55 2.95 -2.85 1.30 -2 1.50 -2.65 1.35 -4.85 -0.25 -2.95 -1.70 -5.30 -4.05 -6.60 -1.50 -0.80 -5.30 -0.85 -59.10 -0.70 -31.60 0.10 -58.15 0.25 -59 0.45 -2.35 0.40 -4.55 2.40 -5.55 4.90 -0.70 1.95 -0.75 2.60 -0.25 4.40 0.75 2.40 2.65 4.70 4.80 5.65 1.25 0.55 11.55 0.60 59.50 0.40 38.45 -0.20 58.45 -0.45 59.35 -0.80z m-117.75 -27.95 c1.95 -0.70 3.60 -2.35 4.50 -4.45 0.60 -1.40 0.65 -3 0.40 -7.75 -1.20 -22.75 -5.05 -37.40 -14.90 -57.05 -4.55 -9.10 -7.05 -13.25 -16.45 -27.45 -17.20 -26 -23.25 -39.15 -26.50 -57.25 -1.50 -8.50 -1.65 -28.25 -0.25 -36.75 2.05 -12.40 5.15 -21.80 10.85 -33 7.30 -14.30 14.25 -23.40 26.65 -34.65 15.15 -13.80 38.90 -24.35 60.85 -27.10 5.30 -0.65 19.25 -0.65 25.40 0 15.30 1.60 33.50 8 47.25 16.60 9.40 5.85 22.65 17.85 29.05 26.25 7.30 9.70 14.70 23.60 18.30 34.50 7.45 22.70 7.20 50.05 -0.75 71.65 -4.10 11.25 -9.60 21.20 -22.75 41.25 -21 32.05 -28.45 52.50 -29.75 82 -0.30 6.70 -0.30 7.10 0.85 9.20 1.70 3.30 3.35 4.30 7.05 4.30 2.45 0 3.45 -0.25 4.75 -1.15 2.75 -2 3.25 -3.55 3.65 -11.85 0.95 -19.35 4.40 -33.35 11.95 -48.35 4.35 -8.60 8.65 -15.70 19.30 -31.95 9.75 -14.90 12.75 -20.35 17.40 -31.45 6.95 -16.50 9.80 -30.65 9.80 -48.50 0 -14.80 -1.55 -24.65 -6.35 -40 -12.55 -40.20 -46.25 -72.90 -86.90 -84.20 -30.45 -8.50 -63.70 -5.60 -91.50 7.95 -6.80 3.30 -11.80 6.35 -19.25 11.75 -7.35 5.25 -9.60 7.20 -15.85 13.55 -13.55 13.90 -21.75 26.55 -28.60 44.35 -6.25 16.25 -8.75 29.40 -8.70 46.60 0 21.65 3.90 37.40 14.45 58.65 3.15 6.35 6.30 11.50 13.35 22.10 17.30 25.95 23.65 38.35 27.55 54 2.15 8.75 3.10 15.35 3.75 26.65 0.45 7.85 0.75 8.75 4.05 11 1.80 1.20 4.95 1.45 7.35 0.55z m44.70 -17.50 c2.35 -0.80 4.20 -2.65 4.95 -4.90 0.65 -2.05 0.75 -0.85 -3.25 -42.05 -1 -10 -1.75 -18.75 -1.65 -19.45 0.15 -1.10 0.50 -1.35 2.40 -1.65 1.20 -0.20 4 -1.30 6.15 -2.40 2.20 -1.10 4.30 -2 4.75 -2 0.40 0 2.20 0.80 3.95 1.75 1.75 0.95 4.65 2.05 6.40 2.35 1.80 0.35 3.30 0.85 3.45 1.15 0.20 0.55 -0.10 4.15 -1.45 17 -0.40 3.85 -1 9.60 -1.25 12.75 -1.15 12.20 -2.45 25.85 -2.75 28.50 -0.25 2.30 -0.10 3.15 0.85 5 2.25 4.45 8.25 5.75 11.90 2.65 3.25 -2.70 2.80 0.30 7.50 -48.60 l2 -20.70 2.90 -2.80 c1.60 -1.55 3.65 -3.85 4.50 -5.15 1.80 -2.65 1.95 -2.70 9.35 -3.10 6.75 -0.40 12.30 -2.65 18.20 -7.30 2.55 -2 6.55 -7.20 7.60 -9.80 2.25 -5.65 2.95 -12.30 1.95 -17.75 -0.65 -3.40 -0.15 -4.70 2.55 -6.70 4.50 -3.30 8.95 -10.35 9.95 -15.80 1.15 -6.15 0.10 -13.40 -2.75 -18.20 -1.55 -2.65 -1.55 -3.70 -0.20 -7.25 1.45 -3.70 1.80 -10.60 0.80 -15.35 -1.80 -8.35 -7.60 -16.60 -13.85 -19.60 -2.60 -1.25 -2.75 -1.45 -4 -4.80 -1.95 -5.25 -3.80 -8.10 -7.95 -12.25 -4.55 -4.50 -9 -7 -15.30 -8.60 -4.50 -1.15 -4.50 -1.15 -6.30 -3.90 -4.40 -6.65 -11.50 -10.70 -19.95 -11.35 -4.60 -0.35 -8.80 0.60 -13.65 3.10 -1.85 0.95 -3.80 1.75 -4.25 1.75 -0.45 0 -2.40 -0.80 -4.35 -1.75 -5 -2.50 -10.25 -3.50 -15.15 -2.80 -8.35 1.15 -13.55 3.95 -17.75 9.60 -1.35 1.75 -2.85 3.35 -3.35 3.55 -0.50 0.20 -2.50 0.35 -4.45 0.35 -1.95 0 -4.40 0.15 -5.40 0.35 -10.50 1.80 -20.40 10 -23.60 19.55 -1.20 3.55 -2.05 8.90 -1.80 11 0.55 4.05 0.75 8.45 0.40 8.90 -0.20 0.30 -1.30 1.25 -2.45 2.10 -3.65 2.85 -7.80 9.05 -9.15 13.65 -0.95 3.25 -1.25 9.85 -0.60 13 0.30 1.50 1.40 4.50 2.40 6.65 l1.85 3.95 -1.40 4 c-2.65 7.30 -1.65 16.85 2.45 24.25 2.30 4.05 7.10 8.95 10.30 10.55 2.80 1.35 3.20 1.80 4.20 4.65 3.40 9.60 10.45 16.70 19.80 19.95 2.30 0.85 4.60 1.50 5.05 1.50 1.65 0 3.20 1.10 4.55 3.25 1.50 2.30 4.95 5.95 6.90 7.30 1.15 0.75 1.25 1.30 1.85 8 0.65 7.80 3 32.25 4.60 48.05 1.30 12.60 1.65 13.60 5.75 15.45 2.35 1.10 3.50 1.15 5.80 0.40z m214.30 -35.30 c3.75 -1.75 5.60 -6.90 3.70 -10.50 -1.20 -2.40 -1.85 -2.90 -9.80 -7.50 -3.30 -1.90 -11.60 -6.75 -18.50 -10.75 -6.85 -3.95 -13.75 -7.90 -15.25 -8.70 -1.50 -0.80 -3.95 -2.20 -5.45 -3.10 -4.50 -2.85 -8.35 -2.65 -11.45 0.55 -2.95 3.05 -2.90 7.95 0.10 10.75 1.70 1.55 16.20 10.20 28.80 17.20 3.85 2.15 12.10 6.90 16 9.30 6.10 3.70 8.60 4.30 11.85 2.75z m-363.05 -18.55 c18.10 -10.40 19.10 -11.15 19.55 -15.20 0.35 -2.85 -0.85 -5.45 -3.25 -7.30 -1.45 -1.10 -2.30 -1.35 -4.55 -1.35 -2.95 0.05 -2.35 -0.30 -24.30 12.40 -5.95 3.45 -7.25 5.10 -7.25 9.20 0 4.55 3.15 7.65 7.80 7.65 2.30 0 3.35 -0.50 12 -5.40z m-9.80 -95.15 c2.75 -0.60 4.70 -2.40 5.80 -5.30 1 -2.60 0.45 -5.15 -1.60 -7.65 -2.45 -2.85 -3.30 -3 -19.80 -3 -13.90 0 -15.10 0.05 -16.85 1 -2.35 1.20 -3.65 2.70 -4.50 5.40 -1.40 4.15 1.60 8.70 6.35 9.65 2.90 0.55 28.10 0.50 30.60 -0.10z m375.75 -0.50 c3.40 -1.60 4.95 -4.15 4.65 -7.60 -0.25 -3.35 -1.65 -5.40 -4.55 -6.80 -2.05 -1 -3 -1.05 -17.05 -1.05 -13.85 0 -14.95 0.05 -16.80 1 -5.20 2.65 -6.45 8.95 -2.55 12.70 2.60 2.50 4.10 2.70 19.65 2.75 13.75 0.10 14.45 0.05 16.65 -1z m-350.45 -87 c4.50 -2.15 5.55 -8.60 2.05 -12.35 -0.60 -0.65 -3.90 -2.75 -7.35 -4.70 -3.45 -1.95 -12.90 -7.40 -21 -12.15 -23.20 -13.55 -23.50 -13.70 -27.10 -12.70 -3.80 1 -6.40 5.25 -5.70 9.15 0.50 2.55 2.70 4.85 7.20 7.45 2.10 1.25 8.35 4.80 13.85 7.95 5.50 3.15 14.95 8.60 20.95 12.10 12.10 6.95 13.05 7.25 17.10 5.25z m307.15 -3.70 c20.30 -11.60 21.05 -12.20 21.05 -16.70 0 -4.60 -3.40 -8.05 -7.95 -8.05 -1.90 0 -3.75 0.90 -13.75 6.55 -15.45 8.80 -15.55 8.90 -16.85 11.10 -0.85 1.50 -1 2.50 -0.85 4.60 0.35 4.40 3.45 7.20 7.85 7.25 1.90 0 3.45 -0.70 10.50 -4.75z m-243.10 -60.05 c2.60 -1.95 3.40 -3.55 3.40 -6.85 0 -2.65 -0.25 -3.45 -1.55 -5.35 -0.85 -1.25 -4.20 -6.85 -7.40 -12.50 -3.25 -5.65 -6.50 -10.90 -7.30 -11.70 -1.20 -1.25 -1.95 -1.50 -4.40 -1.70 -3.50 -0.25 -5.40 0.55 -7.45 3.20 -1.10 1.45 -1.35 2.35 -1.35 4.40 0 2.75 -0.30 2.15 6.70 14.05 2.10 3.60 5.10 8.65 6.65 11.30 3.30 5.65 4.60 6.60 8.75 6.30 1.60 -0.10 3.15 -0.55 3.95 -1.15z m172.55 0.60 c2.10 -1.10 3.20 -2.55 7.10 -9.55 2.05 -3.55 5.30 -9.20 7.25 -12.50 7.55 -12.60 16.85 -29.30 17.30 -31 1.20 -4.30 -2.95 -9.75 -7.40 -9.75 -2.40 0 -4.90 1.30 -6.50 3.35 -1.25 1.60 -11.60 19.10 -16.05 27.15 -0.65 1.25 -3.55 6.20 -6.35 11 -7.05 12.05 -6.90 11.70 -6.65 14.75 0.25 3.05 1.65 5.25 4 6.40 2.05 1 5.50 1.10 7.30 0.15z m-87.80 -22.80 c2.20 -0.65 4.65 -3.30 5.40 -5.85 0.40 -1.25 0.50 -6.80 0.40 -16.65 -0.15 -13.80 -0.20 -14.85 -1.20 -16.50 -3.15 -5.40 -11.25 -5.15 -14.05 0.50 -1.10 2.15 -1.15 2.65 -1.15 16.75 0 8.95 0.20 15.25 0.55 16.45 0.65 2.30 2.90 4.60 5.15 5.25 2.10 0.60 2.75 0.65 4.90 0.05z"/>
  <path d="M309.50 524.55 c-4.95 -1.30 -11.10 -4.75 -14.25 -8 -1.50 -1.50 -2.75 -2.95 -2.75 -3.15 0 -0.20 9.30 -0.40 20.65 -0.40 11.30 -0.05 22.55 -0.15 24.95 -0.30 3.95 -0.30 4.40 -0.20 4.75 0.60 0.45 1.25 -5.35 6.50 -9.60 8.60 -7 3.50 -16.50 4.55 -23.75 2.65z"/>
  <path d="M298.90 353.75 c-0.75 -0.45 -2.85 -2.70 -4.75 -5.15 -5.25 -6.85 -8.05 -9.10 -11.20 -9.10 -1.05 0 -2.35 -0.40 -3.05 -1 -1.70 -1.30 -4.10 -6.45 -6.75 -14.65 -2.75 -8.40 -3.75 -10.05 -6.25 -10.25 -1.55 -0.15 -2 0.10 -3.10 1.55 -0.75 0.95 -1.80 3.10 -2.35 4.80 -0.60 1.65 -1.20 3.05 -1.40 3.05 -0.50 0 -8.10 -8.35 -9.95 -10.95 -2.15 -3.05 -2.55 -5.60 -1.20 -6.95 1.70 -1.70 5.55 -1.85 15.95 -0.55 13.20 1.60 17.85 1.75 19.40 0.75 2.25 -1.50 1.50 -3.25 -3.50 -8.35 -3.15 -3.20 -3.60 -3.45 -5.55 -3.45 -1.15 0 -3.20 0.50 -4.55 1.05 -5.45 2.45 -9.30 2.70 -12.20 0.80 -1.80 -1.20 -4.65 -5.15 -6.60 -9.20 -2.55 -5.35 -5.05 -13.30 -4.65 -14.85 0.20 -0.90 1.85 -2.45 4.95 -4.75 4.50 -3.35 8.35 -7.05 10.05 -9.55 0.45 -0.70 0.80 -2.20 0.80 -3.55 0 -1.85 -0.40 -2.90 -2.10 -5.50 -1.65 -2.55 -2.10 -3.75 -2.30 -6.05 -0.20 -2.55 0 -3.20 1.70 -6.40 2.25 -4.20 5.60 -7.70 8.05 -8.55 2.10 -0.70 5.45 -0.30 9.45 1.05 1.55 0.55 3.95 1 5.30 1 4.35 0 5.40 -0.80 9.50 -7.10 7.20 -11 11.70 -12.75 14.40 -5.55 2.80 7.45 3.55 24 3.10 65.15 -0.35 27.80 -0.40 28.80 -1.40 30.75 -1.75 3.35 -4.20 4.20 -11.80 4.25 l-6.35 0 -1.80 1.55 c-3.60 3.20 -4 6.95 -1.15 10.25 3.20 3.60 9.35 5.55 15.95 5 3.30 -0.25 4 -0.20 5 0.65 1.10 0.90 1.20 1.40 1.35 6.25 0.20 5 0.10 5.40 -1.25 7.90 -2.20 4.05 -4.65 6.40 -6.70 6.40 -0.95 -0.05 -2.30 -0.35 -3.05 -0.75z m-1.45 -57.65 c3.10 -2.50 3.80 -3.85 3.80 -7.25 -0.05 -3.90 -1.80 -7.35 -5.85 -11.45 -6.45 -6.45 -14.10 -9.80 -21.40 -9.25 -3.75 0.25 -10.80 3.25 -13.10 5.55 -3 3.05 -3.75 7.40 -1.85 10.80 2.30 4.05 6.90 4.70 12.65 1.70 5.85 -2.95 9.40 -2.25 12 2.40 4.90 8.95 9.10 11.25 13.75 7.50z m-9.45 -40.65 c3.25 -0.70 9.95 -4.05 12.95 -6.45 3.45 -2.70 5.55 -6.05 5.55 -8.70 0 -2.50 -1.45 -4.95 -3.60 -6.30 -3.90 -2.35 -7.75 -1.70 -12.25 2.10 -3.70 3.15 -5.45 4.05 -7 3.65 -1.75 -0.40 -4.95 -2.65 -5.90 -4.05 -1.20 -1.90 -4.30 -3.20 -7.50 -3.20 -3.35 0 -4.50 0.50 -5.50 2.50 -2 3.85 -0.20 10.35 4.05 14.65 5.10 5.10 12.45 7.35 19.20 5.80z"/>
  <path d="M331 353.05 c-0.95 -0.50 -2.40 -2 -3.25 -3.30 l-1.50 -2.40 0 -31.80 c0 -17.50 -0.20 -43.40 -0.45 -57.55 -0.45 -28.10 -0.05 -35.25 2.20 -40.35 1.55 -3.50 2.30 -4.15 4.85 -4.15 3.75 0 6.90 2.05 14.05 9.10 l4.60 4.60 3.75 0.35 c8.50 0.80 13.15 5.60 16.65 17.20 0.85 2.75 1.45 3.80 2.85 4.90 1.25 1 1.75 1.80 1.75 2.80 0 2.10 -1.35 2.95 -5.80 3.60 -8.25 1.15 -13.15 3.35 -15.60 6.95 -1.55 2.30 -1.30 5.30 0.75 8.20 1.45 2.05 1.45 2.05 4.45 1.95 12.10 -0.40 13.90 -0.05 19.45 3.65 5.85 3.85 9.25 9.60 9.25 15.45 -0.05 6.50 -2.75 9.80 -9.85 11.85 -6.60 1.90 -7.55 4.80 -4.60 14.20 2.10 6.70 2.45 12.25 1.05 15.05 -1.85 3.60 -7.60 7.15 -11.55 7.15 -1.05 0 -3.55 -0.60 -5.60 -1.30 -4.50 -1.55 -7.20 -1.65 -9.75 -0.40 -1.65 0.80 -2.30 1.60 -4.25 5.60 -4.15 8.50 -8.55 11.30 -13.45 8.65z m8.60 -20.15 c1.05 -0.30 3 -1.55 4.30 -2.75 5.70 -5.35 6.85 -5.35 14.55 -0.50 5.55 3.45 5.90 3.60 8.85 3.60 2.60 0 3.35 -0.20 4.40 -1.20 2.10 -1.95 2.65 -4.55 1.65 -7.70 -2.90 -9.05 -13 -15.45 -23.30 -14.70 -4.80 0.30 -8.40 1.70 -12.55 4.75 -8.45 6.25 -11.45 15.25 -6.10 18.10 2.10 1.10 5.35 1.25 8.20 0.40z m18.55 -32.65 c4.50 -0.95 9.95 -3.65 13.25 -6.50 2.95 -2.60 4.10 -4.50 4.10 -6.65 0 -4.20 -8 -5.95 -15.35 -3.35 -5.35 1.85 -7.10 1 -12.90 -6.15 -4.25 -5.30 -5.90 -6.60 -8.15 -6.60 -4.10 0 -7.60 5.30 -6.90 10.35 0.80 5.85 4.55 12.80 8.45 15.80 4.75 3.60 10.45 4.60 17.50 3.10z m-15.85 -45.05 c0.95 -0.45 2.60 -1.90 3.70 -3.20 1.85 -2.25 2.15 -2.35 5.10 -2.70 4.10 -0.40 6.95 -1.85 9.30 -4.70 2.60 -3.10 2.95 -5.10 1.35 -7.05 -2.70 -3.15 -12.05 -3.60 -20.60 -1 -8.35 2.60 -12.90 7.65 -11.55 12.95 0.55 2.20 3.15 5.20 5.10 6 1.75 0.70 5.80 0.55 7.60 -0.30z"/>
 </g>
</svg>